<svg width="20" height="20" fill="none" xmlns="http://www.w3.org/2000/svg"><path d="M16.446 1H3.554C2.146 1 1 2.034 1 3.305v13.39C1 17.966 2.146 19 3.554 19h12.892C17.854 19 19 17.966 19 16.695V3.305C19 2.034 17.854 1 16.446 1zm1.385 15.695c0 .69-.621 1.25-1.385 1.25H3.554c-.764 0-1.385-.56-1.385-1.25V3.305c0-.69.621-1.25 1.385-1.25h12.892c.764 0 1.385.56 1.385 1.25v13.39z" fill="#fff"/><path d="M14.886 5.873c.369.333.997.092.997-.373a.5.5 0 00-.171-.373l-1.87-1.687c-.16-.173-.54-.226-.796-.026-.024.019.108-.1-1.9 1.713a.492.492 0 000 .746.63.63 0 00.826 0l.872-.787v9.828l-.872-.787a.63.63 0 00-.827 0 .492.492 0 000 .746l1.867 1.685c.254.233.663.183.83.002l1.87-1.687a.5.5 0 00.171-.373c0-.466-.628-.706-.997-.373l-.873.787V5.086l.873.787zM7.243 3.728c-.221-.535-1.075-.556-1.322-.014L3.822 8.687c-.114.272.037.577.339.68.301.105.639-.032.754-.304l.378-.896H7.85l.374.894a.587.587 0 00.547.341c.406 0 .692-.367.547-.713L7.243 3.728zM5.738 7.112l.84-1.989.831 1.99H5.738zm2.735 8.548H5.81l3.067-4.247c.253-.35-.027-.815-.49-.815h-3.54c-.323 0-.585.236-.585.527 0 .291.262.527.585.527h2.462L4.241 15.9c-.253.35.027.815.49.815h3.742c.323 0 .585-.236.585-.527 0-.292-.262-.528-.585-.528z" fill="#fff"/></svg>