<svg width="19" height="20" fill="none" xmlns="http://www.w3.org/2000/svg"><g clip-path="url(#clip0)" fill="#fff"><path d="M14.518.139a.373.373 0 00-.45-.102.483.483 0 00-.254.44v2.546c-2.23.102-3.345 1.17-3.516 1.348-1.124 1.067-1.892 2.554-2.17 4.204a8.544 8.544 0 00-.075 2.423V11l.004.02.087.584c.03.196.162.35.331.387.17.036.34-.053.43-.224l.262-.506c.808-1.552 1.814-2.58 2.99-3.057a3.8 3.8 0 011.657-.281v2.636c0 .194.1.368.255.441a.373.373 0 00.45-.104l4.36-5.067a.531.531 0 000-.675L14.517.14zm.121 9.265v-1.91c0-.233-.147-.433-.347-.47-.353-.066-1.294-.17-2.407.28-1.187.481-2.214 1.427-3.06 2.817a7.825 7.825 0 01.112-1.36c.25-1.467.888-2.698 1.893-3.66a.417.417 0 00.025-.027c.03-.03 1.077-1.125 3.368-1.105h.003c.228 0 .413-.214.413-.477V1.625l3.365 3.87-3.365 3.91z"/><path d="M17.579 14.163c-.233 0-.421.211-.421.473v1.999c-.001.783-.566 1.418-1.264 1.419H2.106c-.698-.001-1.263-.636-1.264-1.42V5.366c.001-.783.566-1.418 1.264-1.419h2.913c.233 0 .421-.212.421-.473S5.252 3 5.02 3H2.106C.943 3.001.001 4.06 0 5.365v11.27C.001 17.94.943 18.998 2.106 19h13.788c1.163-.002 2.105-1.06 2.106-2.365v-2c0-.26-.189-.472-.421-.472z"/></g><defs><clipPath id="clip0"><path fill="#fff" transform="translate(0 .5)" d="M0 0h19v19H0z"/></clipPath></defs></svg>