<svg width="14" height="14" fill="none" xmlns="http://www.w3.org/2000/svg"><path d="M11.343 7.205h.61a1.035 1.035 0 101.013-1.239c-.5 0-.918.357-1.013.829h-.61a4.331 4.331 0 00-1.128-2.72l1.098-1.098a1.311 1.311 0 002.08-1.06c0-.722-.588-1.31-1.31-1.31a1.311 1.311 0 00-1.06 2.08L9.925 3.785a4.332 4.332 0 00-2.72-1.128v-.61a1.035 1.035 0 10-1.239-1.013c0 .5.357.918.829 1.013v.61a4.332 4.332 0 00-2.72 1.128L2.977 2.687A1.31 1.31 0 002.65.831a.205.205 0 00-.23.34.9.9 0 11-.748-.12.205.205 0 00-.112-.394C1 .816.608 1.334.608 1.917a1.312 1.312 0 002.079 1.06l1.098 1.098a4.332 4.332 0 00-1.128 2.72h-.61a1.035 1.035 0 10-1.013 1.239c.5 0 .918-.357 1.013-.829h.61a4.332 4.332 0 001.128 2.72l-1.098 1.098a1.311 1.311 0 00-2.08 1.06c0 .722.588 1.31 1.31 1.31a1.311 1.311 0 001.06-2.08l1.098-1.098a4.331 4.331 0 002.72 1.128v.61a1.035 1.035 0 101.239 1.013c0-.5-.357-.918-.829-1.013v-.61a4.332 4.332 0 002.72-1.128l1.098 1.098a1.312 1.312 0 001.06 2.08 1.312 1.312 0 001.242-1.726.205.205 0 00-.389.13.9.9 0 11-1.754.285.9.9 0 011.23-.837.205.205 0 00.15-.382 1.306 1.306 0 00-1.249.16l-1.098-1.098a4.332 4.332 0 001.128-2.72zm1.623-.829a.624.624 0 11-.001 1.249.624.624 0 01.001-1.249zm-.884-5.358a.9.9 0 010 1.8.9.9 0 010-1.8zm-5.706.016a.624.624 0 111.249.001.624.624 0 01-1.249-.001zm-5.342 6.59a.624.624 0 11.001-1.249.624.624 0 01-.001 1.249zM7 3.062A3.943 3.943 0 0110.938 7 3.943 3.943 0 017 10.938 3.943 3.943 0 013.062 7 3.943 3.943 0 017 3.062zm-5.082 9.92a.9.9 0 010-1.8.9.9 0 010 1.8zm5.706-.016a.624.624 0 11-1.249-.001.624.624 0 011.249.001z" fill="#fff"/><path d="M4.68 9.525h1.842a.205.205 0 100-.41h-.477v-.347a.205.205 0 10-.41 0v.347h-.75v-1.01a.9.9 0 01.9-.9h2.43a.9.9 0 01.9.9v1.01h-.75v-.347a.205.205 0 10-.41 0v.347h-.476a.205.205 0 100 .41H9.32a.205.205 0 00.205-.205V8.105c0-.722-.587-1.31-1.31-1.31h-.152a1.587 1.587 0 10-2.649-1.176c0 .466.202.885.523 1.176h-.152c-.723 0-1.31.588-1.31 1.31V9.32c0 .113.092.205.205.205zM5.824 5.62c0-.649.528-1.176 1.176-1.176.648 0 1.176.527 1.176 1.176 0 .648-.528 1.176-1.176 1.176A1.177 1.177 0 015.824 5.62z" fill="#fff"/></svg>