<svg width="14" height="14" fill="none" xmlns="http://www.w3.org/2000/svg"><path d="M9.46 0H4.54c-.68 0-1.231.552-1.231 1.23v2.516c0 .679.552 1.23 1.23 1.23h4.922c.678 0 1.23-.551 1.23-1.23V1.23c0-.678-.552-1.23-1.23-1.23zm3.72 9.898h-.82v-.41c0-.678-.553-1.23-1.231-1.23H7.41v-.823h1.23a.41.41 0 100-.818h-.41v-.82H5.77v.82h-.41a.41.41 0 00-.41.41c0 .227.183.408.41.408h1.23v.823H2.87c-.678 0-1.23.552-1.23 1.23v.41H.82a.82.82 0 00-.821.82v.821c0 .453.367.82.82.82h.82v.82h-.41a.41.41 0 100 .821H2.87a.41.41 0 100-.82h-.41v-.82h.82a.82.82 0 00.82-.82v-.821a.82.82 0 00-.82-.82h-.82v-.41a.41.41 0 01.41-.41h3.72v.82h-.82a.82.82 0 00-.82.82v.82c0 .453.366.82.82.82h.82v.82h-.41a.41.41 0 100 .821h1.64a.41.41 0 100-.82h-.41v-.82h.82a.82.82 0 00.82-.82v-.821a.82.82 0 00-.82-.82h-.82v-.82h3.719a.41.41 0 01.41.41v.41h-.82a.82.82 0 00-.82.82v.82c0 .453.367.82.82.82h.82v.82h-.41a.41.41 0 100 .821h1.64a.41.41 0 100-.82h-.41v-.82h.82a.82.82 0 00.821-.82v-.821a.82.82 0 00-.82-.82z" fill="#fff"/></svg>