<svg width="14" height="14" fill="none" xmlns="http://www.w3.org/2000/svg"><path d="M13.974 3.32a.7.7 0 00-1.283-.168l-.117.203a.233.233 0 00-.317.084l-.592 1.01-.203-.117a.234.234 0 10-.234.404l.203.117-1.983 3.436-.49 1.309-.233.436a.7.7 0 00.037.756l-.524.644-.147-.369A.467.467 0 007.258 11l-.084.142-.08-.933a.467.467 0 00-.907-.11l-.574 1.722a.233.233 0 00.147.294c.023.01.047.017.072.019.1 0 .19-.064.222-.159l.571-1.722.082.947a.467.467 0 00.866.201l.086-.142.145.366a.466.466 0 00.798.119l.543-.688a.716.716 0 00.793-.322l.234-.39.888-1.08 2.004-3.478.203.116a.233.233 0 01.087.32l-.933 1.617a.233.233 0 00.074.329.233.233 0 00.32-.087l.933-1.616a.7.7 0 00-.257-.957l-.203-.117.584-1.01a.233.233 0 00-.084-.317l.116-.203a.7.7 0 00.07-.541zm-.88.065a.233.233 0 01.32-.086.234.234 0 01.087.32l-.117.202-.406-.233.117-.203zM9.916 9.9l-.117-.068-.345-.2.331-.887.735.424-.604.73zm-.7.674a.233.233 0 01-.07-.306l.117-.203.406.234-.117.2a.234.234 0 01-.336.075zm1.57-1.787l-.807-.467 1.866-3.233.808.466-1.867 3.234zm2.1-3.637l-.807-.467.466-.807.807.467-.466.807zm-9.205 5.306l-.825.824-.495-.495a.233.233 0 10-.329.332l.495.494a.466.466 0 00.66 0l.823-.826a.233.233 0 00-.329-.329z" fill="#fff"/><path d="M.933 11.084a1.983 1.983 0 103.966 0 .233.233 0 10-.466 0 1.516 1.516 0 11-.607-1.213.233.233 0 10.28-.374 1.983 1.983 0 00-3.173 1.587zm7.466-9.215a.233.233 0 100-.467H2.333a.233.233 0 00-.233.233v.934c0 .129.104.233.233.233h6.066a.233.233 0 100-.467H2.566V1.87H8.4zM3.033 3.268a.233.233 0 000 .467h4.666a.233.233 0 100-.467H3.033zm6.065 1.634H3.966a.233.233 0 000 .466h5.132a.233.233 0 100-.466zM6.766 6.535a.233.233 0 00-.234-.234H1.866a.233.233 0 000 .467h4.666a.233.233 0 00.234-.233zm2.332-.234H7.465a.233.233 0 000 .467h1.633a.233.233 0 100-.467zM4.2 7.934a.233.233 0 100-.466H1.865a.233.233 0 000 .466H4.2zm.932 0h1.634a.233.233 0 100-.466H5.132a.233.233 0 000 .466z" fill="#fff"/><path d="M10.498 10.734a.233.233 0 00-.233.233V13.3a.233.233 0 01-.233.233H.7a.233.233 0 01-.233-.233V.702C.467.573.57.47.7.47h9.332c.129 0 .233.104.233.233v4.382a.233.233 0 00.466 0V.702a.7.7 0 00-.7-.7H.7a.7.7 0 00-.7.7V13.3a.7.7 0 00.7.7h9.332a.7.7 0 00.7-.7v-2.333a.233.233 0 00-.234-.233z" fill="#fff"/></svg>