<svg width="14" height="14" fill="none" xmlns="http://www.w3.org/2000/svg"><path d="M13.59 1.034h-3.31L9.368.12a.41.41 0 00-.579.579l.335.335H7.696a.41.41 0 00-.41.409V3.08c0 .226.184.41.41.41h3.883l.93.93a.41.41 0 10.58-.578l-.352-.352h.854A.41.41 0 0014 3.08V1.443a.41.41 0 00-.41-.41zM8.106 2.67v-.819H9.1v.82h-.995zm1.814 0v-.819h.023l.818.82h-.84zm3.262 0h-1.263l-.819-.819h2.082v.82zM6.931 7.958c1.962-1.884.61-5.28-2.142-5.275C2.04 2.678.686 6.075 2.648 7.958A4.795 4.795 0 000 12.24v1.323c0 .226.183.41.41.41h8.76a.41.41 0 00.409-.41V12.24a4.8 4.8 0 00-2.648-4.282zm-.3 2.51a.41.41 0 01.41.41c-.023.543-.796.542-.819 0a.41.41 0 01.41-.41zM4.79 3.502c.9 0 1.679.53 2.04 1.294h-.71l-.16-.22a.41.41 0 00-.506-.13l-.738.35H2.75a2.257 2.257 0 012.04-1.294zM2.535 5.756c0-.047.002-.094.005-.141h2.27a.41.41 0 00.174-.04l.514-.243.083.114a.41.41 0 00.33.169H7.04A2.259 2.259 0 014.79 8.01a2.257 2.257 0 01-2.254-2.255zm6.225 7.398H.82v-.914c0-1.329.664-2.544 1.727-3.274a2.28 2.28 0 00-.008.192v.548a1.23 1.23 0 00-.819 1.158v.655c.022.543.798.543.819 0v-.655c.023-.543.796-.543.819 0v.655c.021.543.797.543.818 0v-.655a1.23 1.23 0 00-.818-1.158v-.548c0-.215.047-.423.139-.614.777.378 1.81.378 2.587 0 .091.191.14.4.14.614v.562c-1.283.474-.976 2.36.409 2.385 1.384-.026 1.69-1.911.409-2.385v-.562a2.42 2.42 0 00-.008-.191A3.976 3.976 0 018.76 12.24v.914z" fill="#fff"/></svg>