<svg width="15" height="14" fill="none" xmlns="http://www.w3.org/2000/svg"><g clip-path="url(#clip0)" fill="#fff"><path d="M9.089 7.677a2.713 2.713 0 00-2.71 2.71 2.713 2.713 0 002.71 2.71 2.713 2.713 0 002.71-2.71 2.713 2.713 0 00-2.71-2.71zm0 4.968a2.26 2.26 0 01-2.258-2.258A2.26 2.26 0 019.089 8.13a2.26 2.26 0 012.258 2.258 2.26 2.26 0 01-2.258 2.258z"/><path d="M9.089 11.742v.451a1.8 1.8 0 00.521-.076l-.13-.432a1.362 1.362 0 01-.391.057zm0-3.162v.452a1.356 1.356 0 01.747 2.486l.25.376a1.809 1.809 0 00-.997-3.313zM7.96 4.516c0-.73-.436-1.358-1.06-1.643.232-.207.382-.505.382-.84A1.13 1.13 0 006.153.902a1.13 1.13 0 00-1.129 1.13c0 .335.15.633.383.84a1.808 1.808 0 00-1.06 1.643v.452H7.96v-.452zM5.476 2.032a.678.678 0 111.356.002.678.678 0 01-1.356-.002zm-.678 2.484c0-.747.608-1.355 1.355-1.355s1.355.608 1.355 1.355h-2.71zM8.411.903h1.355v.452H8.411V.903zm0 .903h1.355v.452H8.411v-.452zm0 .904h1.355v.451H8.411V2.71zm0 .903h1.355v.452H8.411v-.452zm0 .903h1.355v.452H8.411v-.452zm3.198-1.521l.094-.441 1.325.281-.094.442-1.325-.282zm-.189.885l.095-.443 1.325.282-.094.442-1.325-.282zm-.188.882l.095-.441 1.325.281-.095.442-1.325-.282zm-.187.884l.094-.442 1.325.282-.094.442-1.325-.282zm-.189.883l.094-.442 1.325.282-.094.441-1.325-.281z"/><path d="M14.099 2.138l-3.43-.73V0H3.444v1.409l-3.43.729 1.514 7.12h-.343a1.13 1.13 0 00-1.129 1.13 1.13 1.13 0 001.13 1.128h3.387v-.451h.969A3.617 3.617 0 009.089 14a3.617 3.617 0 003.613-3.613 3.6 3.6 0 00-.146-1.006L14.1 2.138zm-.536.347l-1.31 6.162a3.633 3.633 0 00-1.584-1.504V1.871l2.894.614zM10.218.452v6.505a3.547 3.547 0 00-.452-.117V5.42h-5.42v3.386h1.499a3.582 3.582 0 00-.303.904h-.97v-.452h-.677V.452h6.323zM6.104 8.355H4.798V5.87h4.517v.915c-.075-.005-.15-.012-.226-.012a3.61 3.61 0 00-2.985 1.58zm-3.19.903l-.354-1.66.884-.187v1.847h-.53zm-.446-4.004c.197-.304.5-.512.854-.587.04-.009.08-.013.122-.018v1.377l-1.165.248a1.346 1.346 0 01.189-1.02zm.25-1.124a.672.672 0 01-.293-.427.674.674 0 01.522-.803.667.667 0 01.497.095v1.134a.643.643 0 01-.216.096.674.674 0 01-.51-.095zM.55 2.485l2.894-.614v.623a1.121 1.121 0 00-1.303.453c-.165.253-.22.555-.158.85.063.295.237.548.49.712.018.012.038.02.057.032a1.804 1.804 0 00-.693 1.826l.094.442 1.513-.322v.462l-1.42.302.427 2.007H1.99L.55 2.485zm3.571 8.58H1.185a.678.678 0 010-1.355h2.936v1.354zm.452-.452v-.452h.914c-.004.075-.011.15-.011.226 0 .076.007.15.011.226h-.914zm4.516 2.935a3.165 3.165 0 01-3.162-3.16A3.165 3.165 0 019.09 7.225a3.165 3.165 0 013.161 3.161 3.165 3.165 0 01-3.161 3.161z"/></g><defs><clipPath id="clip0"><path fill="#fff" d="M0 0h14.113v14H0z"/></clipPath></defs></svg>