<svg width="14" height="14" fill="none" xmlns="http://www.w3.org/2000/svg"><path d="M5.396 4.667H1.02C.458 4.667 0 4.209 0 3.646V1.02C0 .458.458 0 1.02 0h4.376c.563 0 1.02.458 1.02 1.02v2.626a1.02 1.02 0 01-1.02 1.02zM1.02.875a.146.146 0 00-.146.146v2.625c0 .08.065.146.146.146h4.375c.08 0 .146-.066.146-.146V1.02a.146.146 0 00-.146-.146H1.02zM5.396 14H1.02C.458 14 0 13.542 0 12.98V6.853c0-.563.458-1.02 1.02-1.02h4.376c.563 0 1.02.457 1.02 1.02v6.125c0 .563-.457 1.021-1.02 1.021zM1.02 6.708a.146.146 0 00-.146.146v6.125c0 .08.065.146.146.146h4.375c.08 0 .146-.065.146-.146V6.854a.146.146 0 00-.146-.146H1.02zM12.98 14H8.603c-.563 0-1.02-.458-1.02-1.02v-2.626c0-.563.457-1.02 1.02-1.02h4.375c.563 0 1.021.457 1.021 1.02v2.625c0 .563-.458 1.021-1.02 1.021zm-4.376-3.792a.146.146 0 00-.146.146v2.625c0 .08.066.146.146.146h4.375c.08 0 .146-.065.146-.146v-2.625a.146.146 0 00-.146-.146H8.604zm4.376-2.041H8.603c-.563 0-1.02-.458-1.02-1.021V1.02C7.583.458 8.04 0 8.603 0h4.375C13.542 0 14 .458 14 1.02v6.126c0 .563-.458 1.02-1.02 1.02zM8.603.875a.146.146 0 00-.146.146v6.125c0 .08.066.146.146.146h4.375c.08 0 .146-.066.146-.146V1.02a.146.146 0 00-.146-.146H8.604z" fill="#E1E1E1"/></svg>