<svg width="14" height="14" fill="none" xmlns="http://www.w3.org/2000/svg"><path d="M13.276 7.724V3.862h-.966v3.862h-.724l.858 1.715a.39.39 0 00.698 0L14 7.724h-.724zm-5.942.966l.362-.724-.121-.242h-1.15l-.12.242.361.724h.668zm1.597-.337v.24c0 1.8-.6 3.575-1.69 5.006V14h1.931v-2.214c0-.505.197-.98.554-1.336l.341.341a1.397 1.397 0 00-.412.995V14h.966v-3.64a2.028 2.028 0 00-1.69-2.007zm-.483-.075l-.344-.049-.376.752.148 2.52c.37-.921.572-1.91.572-2.908v-.315zm-3.379.075a2.028 2.028 0 00-1.69 2.007V14h.966v-2.214c0-.376-.146-.73-.412-.995l.341-.341c.357.357.554.831.554 1.336V14h1.93v-.403A8.302 8.302 0 015.07 8.593v-.24zm.827-.123l-.344.048v.315c0 .999.201 1.987.572 2.908l.149-2.52-.377-.752zm1.359.942h-.51l-.19 3.23c.135.242.285.474.445.7.16-.226.31-.459.445-.7l-.19-3.23zm2.762-6.406a3.125 3.125 0 00-.279-.675l-.063-.113.273-.53-.775-.775-.53.272L8.53.882a3.14 3.14 0 00-.675-.278L7.73.569 7.548 0H6.452L6.27.569l-.125.035a3.14 3.14 0 00-.675.278l-.113.063-.53-.272-.775.775.273.53-.063.113c-.118.21-.212.437-.279.675l-.035.125-.569.182v1.096l.569.182.035.124a3.1 3.1 0 00.279.675l.063.114-.273.53.775.774.53-.272.113.063c.21.117.436.21.675.278l.125.036.182.568h1.096l.182-.568.125-.036a3.14 3.14 0 00.675-.278l.113-.063.53.272.775-.775-.273-.53.063-.113c.118-.209.211-.436.279-.675l.035-.124.569-.182V3.073l-.569-.182-.035-.125zM7 6.034a2.414 2.414 0 110-4.827 2.414 2.414 0 010 4.827z" fill="#fff"/><path d="M7 2.414a1.2 1.2 0 01.395.066l.158-.457A1.692 1.692 0 007 1.931v.483zm1.173.922a1.212 1.212 0 01.029.4l.48.045a1.77 1.77 0 00-.04-.558l-.469.113zm-.128-1.043l-.299.38c.106.082.197.182.27.295l.406-.26a1.696 1.696 0 00-.377-.415zm4.265.604h.483v.482h-.483v-.482zm0-.966h.483v.483h-.483V1.93zm0-.965h.483v.482h-.483V.966zM1.69 3.862H.724v3.862H0L.858 9.44a.39.39 0 00.698 0l.858-1.715H1.69V3.862zm-.483-1.931h.483v.483h-.483V1.93zm0 .966h.483v.482h-.483v-.482zm0-1.931h.483v.482h-.483V.966z" fill="#fff"/></svg>