<svg width="23" height="22" fill="none" xmlns="http://www.w3.org/2000/svg"><path d="M7.188 15.125l3.348-.547 9.017-8.625c.352-.342.572-.81.572-1.328 0-1.035-.878-1.875-1.96-1.875-.541 0-1.031.21-1.388.547L7.76 11.922l-.572 3.203zM17.334 3.83a1.2 1.2 0 01.83-.33c.652 0 1.177.503 1.177 1.125 0 .311-.133.593-.345.795l-.506.484-1.662-1.59.506-.484zM16.27 4.846l1.662 1.59-7.217 6.904v-1.59H9.054l7.217-6.904zM8.47 12.5h1.463v1.399l-1.764.289.301-1.688zm11.264-4.125a.385.385 0 00-.392.375V17c0 .829-.702 1.5-1.568 1.5H5.227c-.866 0-1.568-.671-1.568-1.5V5c0-.829.702-1.5 1.568-1.5h8.625a.385.385 0 00.392-.375.385.385 0 00-.392-.375H5.227C3.93 2.75 2.875 3.759 2.875 5v12c0 1.241 1.055 2.25 2.352 2.25h12.546c1.297 0 2.352-1.009 2.352-2.25V8.75a.385.385 0 00-.392-.375z" fill="#B0B0B0"/></svg>