<svg width="14" height="14" fill="none" xmlns="http://www.w3.org/2000/svg"><g clip-path="url(#clip0)" fill="#fff"><path d="M.7 14h12.133a.7.7 0 00.7-.7V1.633a.7.7 0 00-.7-.7h-.7V.7a.7.7 0 10-1.4 0v.233H9.8V.7a.7.7 0 10-1.4 0v.233h-.933V.7a.7.7 0 10-1.4 0v.233h-.934V.7a.7.7 0 00-1.4 0v.233H2.8V.7a.7.7 0 10-1.4 0v.233H.7a.7.7 0 00-.7.7V13.3a.7.7 0 00.7.7zm12.133-.467H.7a.233.233 0 01-.233-.233v-.274c.075.027.154.04.233.04h2.567V12.6H.7a.234.234 0 01-.233-.233v-.274c.075.027.154.04.233.04h12.133a.69.69 0 00.234-.04v.274a.234.234 0 01-.234.233h-9.1v.467h9.1c.08 0 .159-.014.234-.04v.273a.233.233 0 01-.234.233zm.234-2.936v.836a.233.233 0 01-.234.234h-.836l1.07-1.07zm-1.4.74V10.5a.233.233 0 01.233-.233h.837l-1.07 1.07zM11.2.7a.234.234 0 01.467 0v1.167a.233.233 0 01-.467 0V.7zM8.867.7a.233.233 0 11.466 0v1.167a.233.233 0 11-.466 0V.7zM6.533.7A.233.233 0 017 .7v1.167a.233.233 0 11-.467 0V.7zM4.2.7a.233.233 0 11.467 0v1.167a.233.233 0 01-.467 0V.7zM1.867.7a.233.233 0 11.466 0v1.167a.233.233 0 11-.466 0V.7zm-1.4.933A.234.234 0 01.7 1.4h.7v.467a.7.7 0 101.4 0V1.4h.933v.467a.7.7 0 101.4 0V1.4h.934v.467a.7.7 0 101.4 0V1.4H8.4v.467a.7.7 0 101.4 0V1.4h.933v.467a.7.7 0 001.4 0V1.4h.7a.233.233 0 01.234.233v1.634H.933v.466h12.134V9.8H11.9a.7.7 0 00-.7.7v1.167H.7a.234.234 0 01-.233-.234v-9.8z"/><path d="M2.567 5.133h.466V5.6h-.466v-.467zm1.166 0H4.2V5.6h-.467v-.467zm1.167 0h.467V5.6H4.9v-.467z"/><path d="M1.867 10.733h5.6A.234.234 0 007.7 10.5V9.333h3.967A.234.234 0 0011.9 9.1V4.9a.234.234 0 00-.233-.233h-5.6a.233.233 0 00-.234.233v1.167H1.867a.233.233 0 00-.234.233v4.2a.234.234 0 00.234.233zm4.433-4.2h5.133v.934H6.3v-.934zm2.333 1.4v.934H4.9v-.934h3.733zm-4.2.934H3.5v-.934h.933v.934zm-1.4 0H2.1v-.934h.933v.934zm-.933.466h3.733v.934H2.1v-.934zm5.133.934H6.3v-.934h.933v.934zM9.1 7.933h.933v.934H9.1v-.934zm2.333.934H10.5v-.934h.933v.934zm0-2.8H10.5v-.934h.933v.934zm-1.4 0H7.7v-.934h2.333v.934zM6.3 5.133h.933v.934H6.3v-.934zm-.467 2.334H4.9v-.934h.933v.934zm-1.4 0H3.5v-.934h.933v.934zM2.1 6.533h.933v.934H2.1v-.934z"/><path d="M8.167 9.8h.466v.467h-.466V9.8zm1.166 0H9.8v.467h-.467V9.8zm1.167 0h.467v.467H10.5V9.8z"/></g><defs><clipPath id="clip0"><path fill="#fff" d="M0 0h13.533v14H0z"/></clipPath></defs></svg>