<svg width="14" height="14" fill="none" xmlns="http://www.w3.org/2000/svg"><g clip-path="url(#clip0)" fill="#fff"><path d="M12.527 11.187c.143-.205.228-.455.228-.724v-.249a1.271 1.271 0 00-2.54 0v.25c0 .268.085.518.228.723a1.518 1.518 0 00-1.2.65 1.518 1.518 0 00-1.2-.65c.144-.205.228-.455.228-.724v-.249c0-.7-.57-1.27-1.27-1.27-.7 0-1.269.57-1.269 1.27v.25c0 .268.084.518.228.723-.497.015-.935.27-1.202.652a1.518 1.518 0 00-1.2-.652 1.27 1.27 0 00.227-.724v-.249c0-.7-.57-1.27-1.27-1.27-.7 0-1.27.57-1.27 1.27v.25c0 .268.085.518.228.723A1.52 1.52 0 000 12.705v1.02c0 .15.122.273.273.273h13.454a.273.273 0 00.273-.273v-1.02a1.52 1.52 0 00-1.473-1.518zm-1.765-.973a.724.724 0 011.446 0v.25a.724.724 0 01-1.446 0v-.25zm-4.483 0a.724.724 0 011.446 0v.25a.724.724 0 01-1.446 0v-.25zm-4.487 0a.724.724 0 011.446 0v.25a.724.724 0 01-1.446 0v-.25zm2.691 3.237H.547v-.746c0-.536.436-.972.972-.972H3.51c.536 0 .972.436.972.972v.746zm.55-.746c0-.536.436-.972.972-.972h1.993c.536 0 .972.436.972.972v.746H5.033v-.746zm8.42.746H9.517v-.746c0-.536.436-.972.972-.972h1.992c.536 0 .972.436.972.972v.746zM5.112 7.35a.275.275 0 00-.273.273.275.275 0 00.273.273.275.275 0 00.273-.273.275.275 0 00-.273-.274z"/><path d="M1.75 7.896h2.269a.273.273 0 000-.547H2.023V5.414c0-.509.413-.922.922-.922h.452V5.77a.273.273 0 00.462.197l.98-.94v.822a.273.273 0 00.546 0v-.823l.98.941a.273.273 0 00.462-.197V4.492h.452c.509 0 .922.413.922.922v1.935H6.205a.273.273 0 000 .547h2.27c.15 0 .273-.122.273-.273v-2.21a1.47 1.47 0 00-1.469-1.468h-.897c.299-.314.483-.739.483-1.206v-.984c0-.967-.786-1.753-1.753-1.753-.967 0-1.753.786-1.753 1.753v.985c0 .466.184.89.483 1.205h-.897a1.47 1.47 0 00-1.469 1.469v2.209c0 .15.123.273.274.273zm2.193-3.404h.662l-.662.636v-.636zm2.338.636l-.662-.636h.662v.636zM3.906 1.755a1.207 1.207 0 012.406-.126l-.572-.335a.273.273 0 00-.348.06 1.349 1.349 0 01-1.036.483h-.45v-.082zm0 .984v-.355h.45a1.89 1.89 0 001.294-.51l.668.393v.472c0 .665-.54 1.206-1.206 1.206A1.207 1.207 0 013.906 2.74zM8.825 4.45a.273.273 0 00.263.016l.926-.435h3.396a.587.587 0 00.586-.587V.588a.587.587 0 00-.586-.586H9.285a.587.587 0 00-.587.586v3.63c0 .094.048.181.127.231zm.42-3.862a.04.04 0 01.04-.04h4.125a.04.04 0 01.04.04v2.856a.04.04 0 01-.04.04H9.953c-.04 0-.08.009-.116.026l-.592.278v-3.2z"/><path d="M10.044 1.712h2.606a.273.273 0 000-.546h-2.606a.273.273 0 000 .546zm0 1.094h1.798a.273.273 0 100-.547h-1.798a.273.273 0 000 .547z"/></g><defs><clipPath id="clip0"><path fill="#fff" d="M0 0h14v14H0z"/></clipPath></defs></svg>