<svg width="15" height="14" fill="none" xmlns="http://www.w3.org/2000/svg"><g clip-path="url(#clip0)" fill="#fff"><path d="M5.753.184l.23.645a.1.1 0 00.053.06l.573.258c.08.037.08.166 0 .202l-.573.258a.103.103 0 00-.053.06l-.23.645c-.032.091-.146.091-.179 0l-.229-.644a.103.103 0 00-.054-.06l-.572-.259c-.081-.036-.081-.165 0-.202L5.29.89a.103.103 0 00.054-.06l.23-.645c.032-.09.146-.09.178 0zm7.765 5.794l.17.479c.007.02.022.036.04.044l.425.192c.06.027.06.122 0 .15l-.425.19a.077.077 0 00-.04.046l-.17.478c-.024.067-.109.067-.133 0l-.17-.478a.077.077 0 00-.04-.045l-.424-.192c-.06-.027-.06-.122 0-.15l.424-.19a.077.077 0 00.04-.045l.17-.479c.024-.067.11-.067.133 0zm-3.161-3.6a.216.216 0 100-.431.216.216 0 000 .431zM13.632.806a.399.399 0 10-.796-.057.399.399 0 00.796.057zM9.583 8.35c-.342-.724-.942-1.534-1.689-2.281-.23-.23-.467-.447-.705-.646l-.18-.647.454.148.008.002c.428.127.887.012 1.198-.3l.47-.468c.31-.312.426-.771.3-1.199l-.259-.873a.854.854 0 00-1.636.48l.182.65-.46-.129a1.208 1.208 0 00-1.196.3l-.469.47a1.192 1.192 0 00-.265.403c-.821-.321-1.262-.17-1.494.04a.888.888 0 00-.352.395l-3.396 7.83c-.18.393-.096.862.21 1.168a1.041 1.041 0 001.168.21l7.846-3.378a.89.89 0 00.508-.654l.006-.038c.104-.302.09-.767-.249-1.483zm-.818-.324a.298.298 0 11.001.595.298.298 0 010-.595zM8.28 2.045a.295.295 0 01.366.199l.258.873a.65.65 0 01-.16.646l-.212.213-.133-.43-.317-1.131-.001-.004a.295.295 0 01.199-.366zM7.11 3.623h.004l.793.225.162.521a.66.66 0 01-.437.023l-.809-.264-.15-.485a.654.654 0 01.437-.02zm-1.114.628l.215-.215.136.444.001.001.31 1.118.002.004a.293.293 0 01-.2.366.295.295 0 01-.366-.199l-.258-.873a.65.65 0 01.16-.646zm-1.787.47c.053-.053.15-.088.292-.088.177 0 .428.055.756.199.008.074.022.15.044.223l.258.873a.854.854 0 001.06.577.847.847 0 00.502-.401c.127.115.254.235.378.36.412.411.774.84 1.067 1.26a.634.634 0 10.608 1.084c.212.528.18.833.068.946-.128.127-.5.151-1.166-.163-.667-.316-1.422-.876-2.125-1.58-.703-.702-1.263-1.457-1.58-2.124-.313-.665-.29-1.038-.162-1.166zm-2.961 8.67l-.007.004a.482.482 0 01-.639-.638l.003-.007L3.68 5.66c.046.142.108.296.187.465.343.724.943 1.535 1.69 2.281.746.747 1.557 1.347 2.28 1.69.208.098.394.168.562.217l-7.151 3.079z"/><path d="M13.611 2.474l-.873-.258a1.208 1.208 0 00-1.199.3l-.469.47a1.208 1.208 0 00-.297 1.205l.148.455-.672-.187a.854.854 0 00-.48 1.636l.873.258a1.2 1.2 0 001.199-.3l.468-.468c.311-.311.426-.77.3-1.197l-.13-.46.65.183a.846.846 0 00.648-.07.854.854 0 00-.166-1.567zm-1.762 1.273l.224.794v.003a.66.66 0 01-.02.437l-.485-.15-.264-.809a.66.66 0 01.024-.437l.52.162zm-1.05 2.071l-.873-.258a.295.295 0 01.167-.565l.005.001 1.117.31.002.001.444.137-.215.215a.65.65 0 01-.646.16zm2.853-2.442a.293.293 0 01-.366.199l-.004-.001-1.13-.317h-.001l-.43-.134.213-.212a.65.65 0 01.646-.16l.873.259c.156.046.245.21.199.366zM10.61 1.27a.634.634 0 10-.002-1.266.634.634 0 00.003 1.265zM10.4.424a.298.298 0 11.421.421.298.298 0 01-.421-.42zm.796 7.368a.634.634 0 10.897.895.634.634 0 00-.897-.895zm.658.658a.299.299 0 11-.422-.423.299.299 0 01.422.423zm-9.039 1.57a.279.279 0 01-.256-.39l.353-.821a.279.279 0 11.513.22l-.354.821a.28.28 0 01-.256.17zm.749-1.74a.278.278 0 01-.256-.39l.107-.25a.279.279 0 11.513.221l-.108.25a.28.28 0 01-.256.17z"/></g><defs><clipPath id="clip0"><path fill="#fff" d="M0 0h14.222v14H0z"/></clipPath></defs></svg>