<svg width="23" height="22" fill="none" xmlns="http://www.w3.org/2000/svg"><path d="M11.595 17c.238 0 .432-.169.432-.375v-9c0-.206-.194-.375-.431-.375-.238 0-.432.169-.432.375v9c0 .206.194.375.431.375zm2.575 0c.237.008.44-.154.449-.36l.625-8.989c.008-.206-.177-.382-.414-.39-.237-.007-.44.154-.449.36l-.63 8.989c-.008.21.178.383.42.39zm4.757-12h-4.313V3.5c0-.416-.388-.75-.862-.75H9.439c-.474 0-.862.337-.862.75V5H4.264c-.237 0-.431.169-.431.375s.194.375.431.375h.863l.862 12c.138.821.772 1.5 1.725 1.5h7.763c.953 0 1.56-.686 1.725-1.5l.862-12h.863c.237 0 .431-.169.431-.375S19.164 5 18.927 5zM9.439 3.5h4.313V5H9.439V3.5zm6.9 14.25a.872.872 0 01-.862.75H7.714c-.474 0-.798-.349-.862-.75l-.863-12h11.213l-.863 12zM9.025 17c.237-.008.423-.18.414-.39l-.634-8.989c-.008-.206-.207-.367-.448-.36-.237.008-.423.18-.414.39l.634 8.989c.008.206.207.367.448.36z" fill="#B0B0B0"/></svg>