<svg width="13" height="14" fill="none" xmlns="http://www.w3.org/2000/svg"><path d="M5.485 2.33l-.379-.168a2.376 2.376 0 00-.057-.182l.211-.362a.217.217 0 00.002-.215 2.882 2.882 0 00-.37-.517.216.216 0 00-.21-.066l-.399.09a2.367 2.367 0 00-.145-.106L4.099.382a.217.217 0 00-.125-.177 2.757 2.757 0 00-.594-.2.216.216 0 00-.21.07L2.893.4h-.167L2.447.076a.216.216 0 00-.209-.071 2.76 2.76 0 00-.595.2.217.217 0 00-.125.177L1.48.804c-.05.034-.1.07-.146.107L.935.82a.215.215 0 00-.21.066 2.877 2.877 0 00-.37.517.217.217 0 00.002.215l.211.362a2.38 2.38 0 00-.057.182l-.379.167a.217.217 0 00-.129.199v.59c0 .086.05.163.13.198l.378.167c.018.064.036.124.057.182l-.21.363a.217.217 0 00-.002.215c.103.185.227.358.37.516a.215.215 0 00.21.067l.398-.091c.046.037.095.072.145.107l.039.422a.217.217 0 00.125.177c.19.089.39.156.595.2a.216.216 0 00.209-.071l.278-.323h.167l.278.323a.217.217 0 00.21.07 2.76 2.76 0 00.594-.2c.07-.032.118-.1.125-.176l.039-.422c.05-.035.099-.07.145-.107l.399.09a.216.216 0 00.21-.066c.142-.158.266-.331.37-.516a.217.217 0 00-.002-.215l-.21-.363a2.61 2.61 0 00.056-.182l.379-.167a.217.217 0 00.13-.198v-.59a.217.217 0 00-.13-.199zm-.305.646l-.347.153a.217.217 0 00-.123.15c-.025.11-.058.218-.1.322a.217.217 0 00.012.192l.199.343a2.462 2.462 0 01-.17.237l-.376-.086a.215.215 0 00-.192.049 1.98 1.98 0 01-.266.197.217.217 0 00-.102.165l-.037.398a2.402 2.402 0 01-.265.09l-.257-.298a.217.217 0 00-.164-.075h-.366a.217.217 0 00-.165.075l-.257.298a2.405 2.405 0 01-.265-.09l-.037-.399a.217.217 0 00-.102-.164 1.957 1.957 0 01-.266-.197.215.215 0 00-.192-.049l-.375.086a2.467 2.467 0 01-.17-.237l.199-.343a.217.217 0 00.012-.192 1.995 1.995 0 01-.1-.322.217.217 0 00-.124-.15l-.347-.153V2.67l.347-.153a.217.217 0 00.124-.15c.024-.11.058-.218.1-.322a.217.217 0 00-.012-.192L.797 1.51a2.46 2.46 0 01.17-.238l.375.086a.216.216 0 00.192-.049c.083-.073.173-.138.267-.197a.217.217 0 00.101-.164L1.94.549a2.4 2.4 0 01.265-.09l.257.298a.217.217 0 00.165.076h.366a.217.217 0 00.164-.076L3.413.46c.09.025.179.055.266.09l.036.4a.217.217 0 00.102.164c.094.058.183.123.266.196a.216.216 0 00.192.05l.376-.087c.06.076.118.155.17.238l-.2.342a.217.217 0 00-.012.192c.043.104.076.212.1.322a.217.217 0 00.124.15l.347.153v.307z" fill="#fff"/><path d="M2.809 1.303a1.52 1.52 0 100 3.04 1.52 1.52 0 000-3.04zm0 2.605a1.086 1.086 0 110-2.17 1.086 1.086 0 010 2.17zM12.87 1.944l-.3-.132a2.051 2.051 0 00-.038-.122l.167-.288a.218.218 0 00.002-.215 2.456 2.456 0 00-.313-.436.216.216 0 00-.21-.067l-.315.072a2.188 2.188 0 00-.096-.07l-.03-.335a.217.217 0 00-.125-.177 2.349 2.349 0 00-.504-.17.216.216 0 00-.209.072l-.221.256h-.106l-.22-.256a.215.215 0 00-.21-.071 2.35 2.35 0 00-.504.169.217.217 0 00-.125.177l-.03.335a2.085 2.085 0 00-.096.07L9.072.684a.216.216 0 00-.21.067c-.12.133-.225.28-.313.437a.217.217 0 00.002.214l.167.288a2.11 2.11 0 00-.038.122l-.3.132a.217.217 0 00-.13.199v.491a.22.22 0 00.13.199l.3.132c.012.042.024.082.038.122l-.167.288a.218.218 0 00-.002.215c.088.156.193.303.313.436.052.06.133.085.21.067l.315-.072a2 2 0 00.096.07l.03.335a.217.217 0 00.125.177c.161.075.33.132.504.17a.216.216 0 00.21-.072l.22-.256h.106l.221.256a.217.217 0 00.209.071c.174-.037.343-.094.504-.169.07-.032.118-.1.125-.177l.03-.335a2.08 2.08 0 00.096-.07l.315.072a.216.216 0 00.21-.067c.12-.133.225-.28.313-.436a.218.218 0 00-.002-.215l-.167-.288c.014-.04.026-.08.038-.122l.3-.132a.217.217 0 00.13-.199v-.491a.217.217 0 00-.13-.199zm-.305.549l-.267.118a.216.216 0 00-.124.15 1.61 1.61 0 01-.082.262.218.218 0 00.013.192l.154.267a2.07 2.07 0 01-.113.158l-.291-.066a.215.215 0 00-.192.049 1.71 1.71 0 01-.217.16.217.217 0 00-.102.165l-.028.31a1.899 1.899 0 01-.175.059l-.199-.231a.217.217 0 00-.165-.075h-.304a.217.217 0 00-.165.075l-.199.23a1.89 1.89 0 01-.175-.058l-.028-.31a.217.217 0 00-.102-.165 1.594 1.594 0 01-.217-.16.218.218 0 00-.192-.05l-.29.067a1.994 1.994 0 01-.114-.158l.154-.267a.218.218 0 00.013-.192 1.621 1.621 0 01-.082-.262.216.216 0 00-.124-.15l-.267-.118v-.209l.267-.118a.216.216 0 00.124-.15c.02-.09.048-.178.082-.263a.217.217 0 00-.013-.192l-.154-.266c.035-.054.073-.107.113-.158l.291.066a.216.216 0 00.192-.049 1.71 1.71 0 01.217-.16.217.217 0 00.102-.164l.028-.31a2.4 2.4 0 01.175-.059l.199.23a.217.217 0 00.165.076h.304a.217.217 0 00.165-.075l.199-.231c.058.017.117.037.175.06l.028.31a.22.22 0 00.102.164c.077.048.15.101.217.16a.216.216 0 00.192.05l.29-.067c.041.051.08.104.114.158l-.154.267a.218.218 0 00-.013.192c.034.085.062.172.082.262a.216.216 0 00.124.15l.267.118v.209z" fill="#fff"/><path d="M10.625 1.303a1.086 1.086 0 100 2.171 1.086 1.086 0 000-2.171zm0 1.737a.651.651 0 110-1.303.651.651 0 010 1.303zm2.191 6.148l-.315-.066a2.8 2.8 0 00-.043-.163l.24-.217a.217.217 0 00.056-.246 3.264 3.264 0 00-.4-.684.218.218 0 00-.24-.075l-.304.1a2.845 2.845 0 00-.12-.12l.1-.303a.217.217 0 00-.075-.242c-.21-.16-.44-.294-.684-.399a.218.218 0 00-.246.055l-.217.242a2.666 2.666 0 00-.163-.044l-.066-.315a.217.217 0 00-.212-.173h-.74a.217.217 0 00-.213.173l-.066.315a2.822 2.822 0 00-.163.043l-.217-.24a.218.218 0 00-.246-.056 3.263 3.263 0 00-.684.399.217.217 0 00-.075.241l.1.304a1.698 1.698 0 00-.12.12l-.303-.1a.218.218 0 00-.242.075c-.16.21-.294.44-.399.684a.217.217 0 00.055.246l.242.217a2.659 2.659 0 00-.044.163l-.315.066a.217.217 0 00-.173.212v.74c0 .103.072.192.173.213l.315.066c.012.055.027.11.043.163l-.24.217a.217.217 0 00-.056.246c.105.244.239.473.399.684a.218.218 0 00.241.075l.304-.1c.038.042.078.082.12.12l-.1.303a.217.217 0 00.075.241c.21.16.44.295.684.4a.217.217 0 00.246-.055l.217-.242c.054.017.108.031.163.044l.066.315c.021.1.11.172.212.172h.74a.217.217 0 00.213-.172l.066-.315a2.89 2.89 0 00.163-.043l.217.24c.062.07.16.092.246.056.243-.105.473-.239.684-.399a.217.217 0 00.075-.241l-.1-.304c.042-.038.082-.078.12-.12l.303.1a.218.218 0 00.242-.075c.16-.21.294-.44.399-.683a.217.217 0 00-.055-.247l-.242-.217c.017-.054.031-.108.044-.163l.315-.066c.1-.021.172-.11.172-.212V9.4a.217.217 0 00-.172-.213zm-.262.777l-.28.059a.217.217 0 00-.17.174 2.358 2.358 0 01-.102.378.217.217 0 00.06.235l.228.204a2.885 2.885 0 01-.192.327l-.287-.094a.218.218 0 00-.234.066c-.085.1-.177.193-.277.278a.217.217 0 00-.066.233l.094.287a2.823 2.823 0 01-.327.192l-.204-.228a.218.218 0 00-.235-.06 2.27 2.27 0 01-.378.102.217.217 0 00-.174.17l-.06.28h-.387l-.06-.28a.217.217 0 00-.173-.17 2.349 2.349 0 01-.379-.102.219.219 0 00-.235.06l-.204.228a2.851 2.851 0 01-.327-.192l.094-.287a.218.218 0 00-.066-.234 2.37 2.37 0 01-.278-.277.218.218 0 00-.233-.066l-.287.094a2.837 2.837 0 01-.192-.327l.228-.204a.217.217 0 00.06-.235 2.34 2.34 0 01-.102-.378.217.217 0 00-.17-.174l-.28-.06v-.387l.28-.06a.217.217 0 00.17-.173 2.23 2.23 0 01.102-.379.217.217 0 00-.06-.235l-.228-.204c.057-.113.121-.222.192-.327l.287.094a.218.218 0 00.234-.066c.085-.1.177-.193.278-.278a.218.218 0 00.065-.233l-.094-.287c.105-.07.214-.135.327-.192l.204.228c.06.066.152.09.235.06a2.27 2.27 0 01.378-.102.217.217 0 00.174-.17l.06-.28h.387l.06.28a.217.217 0 00.174.17c.128.023.255.057.378.102.083.03.176.006.235-.06l.204-.228c.113.057.223.121.327.192l-.094.287a.218.218 0 00.066.234c.1.085.193.177.278.278a.22.22 0 00.233.065l.287-.094c.07.105.135.214.192.327l-.228.204a.217.217 0 00-.06.235c.045.123.079.25.102.379a.217.217 0 00.17.173l.28.06v.388z" fill="#fff"/><path d="M9.757 7.816a1.954 1.954 0 100 3.909 1.954 1.954 0 000-3.909zm0 3.474a1.52 1.52 0 110-3.04 1.52 1.52 0 010 3.04zM7.803 2.388H6.066v.435h1.737v-.435zm-1.755 7.08a.217.217 0 00-.114-.114l-1.52-.651a.217.217 0 00-.303.199v.434H1.506V5.862h-.434v3.691c0 .12.097.217.217.218H4.11v.434a.216.216 0 00.303.2l1.52-.652a.217.217 0 00.114-.285zm-1.502.407v-.644l.751.322-.751.322z" fill="#fff"/><path d="M10.458 8.98l-.933 1.12-.483-.483-.307.307.65.651a.22.22 0 00.154.064h.01a.218.218 0 00.157-.078l1.086-1.303-.334-.278z" fill="#fff"/></svg>