<svg width="14" height="14" fill="none" xmlns="http://www.w3.org/2000/svg"><path d="M12.229 1.855h-1.18V.675A.677.677 0 0010.373 0H1.77a.677.677 0 00-.675.675V11.47c0 .37.304.675.675.675h1.18v1.18c0 .371.304.675.676.675H9.36c.371 0 .896-.208 1.166-.462l1.885-1.774c.27-.255.491-.766.491-1.137V2.53a.677.677 0 00-.674-.675zm-9.277.675v9.109h-1.18a.17.17 0 01-.17-.17V.676a.17.17 0 01.17-.169h8.602c.09 0 .168.077.168.169v1.18H3.627a.677.677 0 00-.675.675zm9.113 8.865L10.18 13.17a.89.89 0 01-.144.106v-1.552a.42.42 0 01.422-.422h1.687a.708.708 0 01-.08.094zm.332-.768c0 .05-.009.108-.023.168h-1.916a.93.93 0 00-.928.928v1.75a.88.88 0 01-.169.02H3.627a.17.17 0 01-.17-.168V2.53a.17.17 0 01.17-.169h8.602c.091 0 .169.078.169.17v8.095z" fill="#fff"/><path d="M10.374 4.217H5.482a.253.253 0 100 .506h4.892a.253.253 0 100-.506zm0 3.373H5.482a.253.253 0 100 .506h4.892a.253.253 0 100-.506zM8.18 9.277H5.483a.253.253 0 100 .506h2.699a.253.253 0 000-.506zm2.194-3.373H5.482a.253.253 0 100 .506h4.892a.253.253 0 100-.506z" fill="#fff"/></svg>