<svg width="14" height="14" fill="none" xmlns="http://www.w3.org/2000/svg"><path d="M14 11.691V9.986l-.653-.167-.014-.033.344-.58L12.47 8l-.58.344-.033-.014-.167-.653H9.986l-.167.654-.033.013-.58-.343L8 9.207l.344.58-.014.032-.653.167v1.706l.654.166.013.033-.343.58 1.206 1.206.58-.344.032.014.167.653h1.706l.166-.653a1.54 1.54 0 00.034-.014l.58.344 1.205-1.206-.344-.58.014-.033.653-.167zm-.89.709l-.71.71-.483-.287-.108.052a2.27 2.27 0 01-.216.09l-.114.04-.138.543h-1.004l-.139-.543-.114-.04a2.134 2.134 0 01-.215-.09l-.108-.052-.483.287-.71-.71.286-.483-.052-.108a2.251 2.251 0 01-.089-.216l-.04-.114-.544-.138v-1.004l.544-.139.04-.114c.026-.073.056-.145.09-.215l.051-.108-.286-.483.71-.71.482.286.109-.052c.07-.033.142-.063.215-.089l.114-.04.138-.544h1.005l.138.544.114.04c.074.026.146.056.215.09l.109.051.482-.286.71.71-.286.482.052.109c.033.07.063.142.09.215l.04.114.543.138v1.005l-.543.138-.04.114a2.136 2.136 0 01-.09.215l-.052.109.287.483z" fill="#fff"/><path d="M10.839 9.032c-.996 0-1.807.81-1.807 1.807 0 .996.81 1.806 1.807 1.806.996 0 1.806-.81 1.806-1.806s-.81-1.807-1.806-1.807zm0 3.162a1.356 1.356 0 01-1.355-1.355 1.356 1.356 0 012.71 0c0 .747-.608 1.354-1.355 1.354z" fill="#fff"/><path d="M10.839 9.935a.904.904 0 000 1.807.904.904 0 000-1.807zm0 1.355a.452.452 0 110-.904.452.452 0 010 .904zm-5.12-7.467c.075.222.207.418.378.571v.192l-1.074.402a1.134 1.134 0 00-.733 1.057v1.18h5.42v-1.18c0-.468-.295-.893-.733-1.057l-1.074-.403v-.19c.171-.154.303-.35.378-.572a.903.903 0 00.751-.888v-.903C9.032.912 8.121 0 7 0 5.88 0 4.968.912 4.968 2.032v.903c0 .446.325.815.75.888zm1.733.856L7 5.432l-.452-.753v-.016a1.343 1.343 0 00.904 0v.016zm-1.226.34l.455.759-.452.226-.293-.876.29-.109zm3.032 1.026v.73H4.742v-.73a.68.68 0 01.44-.634l.332-.124.45 1.354L7 6.123l1.035.518.452-1.354.332.124a.68.68 0 01.44.634zm-1.194-.917l-.293.876-.452-.226.455-.759.29.109zM7 4.29a.904.904 0 01-.903-.903V2.47A1.76 1.76 0 007 2.11c.26.204.573.325.903.36v.918A.904.904 0 017 4.29zm1.355-.966v-.777a.45.45 0 01.226.389.45.45 0 01-.226.388zM7 .452c.871 0 1.58.709 1.58 1.58v.126a.893.893 0 00-.451-.126H8.09c-.351 0-.682-.137-.93-.385L7 1.487l-.16.16a1.307 1.307 0 01-.93.385h-.04a.893.893 0 00-.452.126v-.126c0-.871.71-1.58 1.581-1.58zM5.645 2.547v.777a.45.45 0 01-.226-.389.45.45 0 01.226-.388zM0 14h4.516V8.129H0V14zm.452-5.42h3.613v4.968H.452V8.581z" fill="#fff"/><path d="M.903 9.032h2.71v.452H.903v-.452zm0 .903h.452v.452H.903v-.452zm.903 0h1.807v.452H1.806v-.452zm-.903.904h2.71v.451H.903v-.451zm0 .903h2.71v.451H.903v-.451zm2.258.903h.452v.452H3.16v-.452zm-2.258 0H2.71v.452H.903v-.452zm5.127-2.55l-.319-.32-1.063 1.064 1.063 1.063.32-.32-.518-.518h1.713v-.451H5.513l.518-.518zM2.484 3.613c0-.124.101-.226.226-.226h1.035l-.518.518.32.32L4.61 3.16 3.547 2.098l-.32.32.518.517H2.71a.678.678 0 00-.678.678v4.064h.452V3.613zm8.355 0v2.842l-.518-.518-.32.32 1.064 1.062 1.062-1.063-.319-.319-.518.518V3.613a.678.678 0 00-.677-.678h-1.13v.452h1.13c.125 0 .226.102.226.226z" fill="#fff"/></svg>