<svg width="14" height="14" fill="none" xmlns="http://www.w3.org/2000/svg"><path d="M0 3.456v7.088c0 .976.797 1.773 1.773 1.773h5.728c.977 0 1.773-.797 1.773-1.774V9.396a.351.351 0 10-.702 0v1.147c0 .592-.483 1.074-1.074 1.074H1.773A1.076 1.076 0 01.7 10.543V3.457c0-.59.482-1.073 1.073-1.073h5.728c.591 0 1.074.482 1.074 1.073v1.148a.351.351 0 10.702 0V3.456c0-.976-.796-1.773-1.773-1.773h-5.73C.796 1.683 0 2.477 0 3.456z" fill="#fff"/><path d="M11.005 9.641a.348.348 0 00.248.103c.091 0 .18-.034.248-.103l2.396-2.395a.348.348 0 000-.494l-2.396-2.396a.348.348 0 00-.493 0 .348.348 0 000 .494l1.799 1.799H6.241a.351.351 0 100 .702h6.562l-1.8 1.8a.345.345 0 000 .49z" fill="#fff"/></svg>