<svg width="14" height="14" fill="none" xmlns="http://www.w3.org/2000/svg"><g clip-path="url(#clip0)" fill="#fff"><path d="M7.44 14h-.88a1.29 1.29 0 01-1.288-1.289v-.297a5.662 5.662 0 01-.878-.364l-.21.21a1.289 1.289 0 01-1.823 0l-.621-.62a1.289 1.289 0 010-1.824l.21-.21a5.653 5.653 0 01-.364-.878h-.297A1.29 1.29 0 010 7.44v-.878c0-.711.578-1.29 1.289-1.29h.297a5.73 5.73 0 01.364-.877l-.21-.21a1.289 1.289 0 010-1.823l.62-.621a1.289 1.289 0 011.824 0l.21.21a5.7 5.7 0 01.878-.364V1.29C5.272.579 5.85 0 6.56 0h.878c.711 0 1.29.578 1.29 1.289v.297c.301.097.595.218.877.364l.21-.21a1.289 1.289 0 011.823 0l.621.62a1.29 1.29 0 010 1.824l-.21.21a5.7 5.7 0 01.364.878h.297c.71 0 1.289.578 1.289 1.289v.878a1.29 1.29 0 01-1.289 1.29h-.297a5.662 5.662 0 01-.364.877l.21.21c.51.51.497 1.327 0 1.823l-.62.621a1.289 1.289 0 01-1.824 0l-.21-.21a5.653 5.653 0 01-.878.364v.297A1.29 1.29 0 017.44 14zm-2.91-2.812c.392.232.814.407 1.254.52a.41.41 0 01.307.398v.605c0 .258.21.469.469.469h.878a.47.47 0 00.469-.469v-.605a.41.41 0 01.308-.397 4.91 4.91 0 001.253-.52.41.41 0 01.499.062l.428.43a.47.47 0 00.663 0l.621-.622a.468.468 0 000-.662l-.429-.43a.41.41 0 01-.063-.498c.232-.392.407-.814.52-1.254a.41.41 0 01.398-.307h.605a.47.47 0 00.469-.469v-.878a.47.47 0 00-.469-.469h-.605a.41.41 0 01-.397-.307 4.833 4.833 0 00-.52-1.254.41.41 0 01.062-.498l.43-.43a.468.468 0 000-.662l-.622-.621a.468.468 0 00-.662 0l-.43.429a.41.41 0 01-.498.063 4.835 4.835 0 00-1.253-.52.41.41 0 01-.308-.398V1.29a.469.469 0 00-.468-.47h-.878a.469.469 0 00-.469.469v.605a.41.41 0 01-.307.398c-.44.113-.862.288-1.254.52a.41.41 0 01-.498-.063l-.43-.43a.468.468 0 00-.662 0l-.621.622a.468.468 0 000 .662l.429.43a.41.41 0 01.063.498 4.834 4.834 0 00-.52 1.254.41.41 0 01-.398.307H1.29a.47.47 0 00-.469.469v.878c0 .259.21.469.469.469h.605a.41.41 0 01.398.307c.113.44.288.862.52 1.254a.41.41 0 01-.063.498l-.43.43a.468.468 0 000 .662l.622.621c.18.18.477.186.662 0l.43-.429c.097-.097.3-.18.498-.063z"/><path d="M7 10.046A3.05 3.05 0 013.954 7 3.05 3.05 0 017 3.954 3.05 3.05 0 0110.046 7 3.05 3.05 0 017 10.046zm0-5.272A2.228 2.228 0 004.774 7 2.23 2.23 0 007 9.226 2.228 2.228 0 009.226 7 2.228 2.228 0 007 4.774z"/></g><defs><clipPath id="clip0"><path fill="#fff" d="M0 0h14v14H0z"/></clipPath></defs></svg>