<svg xmlns="http://www.w3.org/2000/svg" viewBox="0 0 511.789 511.789" width="512" height="512"><path d="M467.492 498.373H44.296c-15.981 0-30.307-8.255-38.321-22.081-7.85-13.545-7.97-29.521-.33-43.836l211.6-396.372c7.577-14.194 22.026-22.668 38.649-22.668 16.624 0 31.072 8.474 38.65 22.668l211.599 396.371c7.642 14.314 7.521 30.293-.33 43.837-8.013 13.826-22.338 22.081-38.321 22.081z" fill="#ff4c04"/><path d="M506.143 432.455L294.544 36.084c-7.578-14.194-22.026-22.668-38.65-22.668v484.957h211.599c15.982 0 30.308-8.255 38.32-22.081 7.85-13.544 7.971-29.523.33-43.837z" fill="#e10000"/><path d="M255.895 433.392c-22.056 0-40-17.943-40-39.999s17.944-40 40-40 40 17.944 40 40-17.944 39.999-40 39.999zm.001-119.999c-22.057 0-40.001-17.944-40.001-40v-86.5c0-22.056 17.944-40 40-40s40 17.944 40 40v86.5c0 22.056-17.943 40-39.999 40z" fill="#fff3f3"/><path d="M255.895 146.893h-.001v166.5h.002c22.056 0 39.999-17.944 39.999-40v-86.5c0-22.055-17.944-40-40-40zm0 206.5h-.001v79.999h.001c22.056 0 40-17.943 40-39.999s-17.944-40-40-40z" fill="#dad0cb"/></svg>