<svg xmlns="http://www.w3.org/2000/svg" viewBox="0 0 480 480"><g fill="#ffc931"><circle cx="240" cy="44" r="40"/><path d="M240 188l24 96h40l-24-112v-56h16c7.096 0 13.808-1.584 19.872-4.344-.888-.592-1.752-1.2-2.688-1.728.936.528 1.8 1.144 2.688 1.728C332.456 104.096 344 87.416 344 68V4h-32v64c0 8.84-7.16 16-16 16H184c-8.84 0-16-7.16-16-16V4h-32v64c0 26.512 21.488 48 48 48h16v56l-24 112h40l24-96z"/></g><path d="M320 380l-40-40-40 40-40-40-40 40-38.856-38.856L17.144 468h445.712l-104-126.856L320 380zm-120 56h16-16zm32 0h16-16zm32 0h16-16z" fill="#5086f2"/><path fill="#4bdddd" d="M200 340l40 40 40-40 40 40 38.856-38.856L312 284H168l-46.856 57.144L160 380z"/><g fill="#ffc931"><circle cx="56" cy="52" r="48"/><circle cx="424" cy="292" r="48"/></g><path d="M9.128 252H143.28c.44-2.608.72-5.272.72-8 0-26.512-21.488-48-48-48-16.368 0-30.808 8.208-39.472 20.72C51.688 213.784 46.072 212 40 212c-17.672 0-32 14.328-32 32 0 2.776.464 5.432 1.128 8z" fill="#c9f4f3"/><path d="M288 244c24.448 4.528 52.048 5.672 70.904-12.504 12.352-11.912 25.568-39.832 42.032-45.432-13.064 4.44-27.776-1.64-37.696-11.232-9.928-9.584-16.216-22.208-23.088-34.176-6.872-11.968-14.96-23.936-26.96-30.736L304 108h-32v64l16 72z" fill="#e68f39"/><path fill="#42c2c2" d="M304 284h-64v96l40-40 40 40 38.856-38.856L312 284z"/><path fill="#3a66d6" d="M240 468h222.856l-104-126.856L320 380l-40-40-40 40z"/><g fill="#e6b52c"><path d="M280 44c0-22.088-17.912-40-40-40v80c22.088 0 40-17.912 40-40z"/><path d="M264 284h40l-24-112v-56h16c7.096 0 13.808-1.584 19.872-4.344C332.456 104.096 344 87.416 344 68V4h-32v64c0 8.84-7.16 16-16 16h-56v104l24 96z"/></g><path d="M0 460h480v16H0zm232-32h16v16h-16zm32 0h16v16h-16zm-64 0h16v16h-16z" fill="#2c2f47"/></svg>