<svg height="511pt" viewBox="0 -26 511.824 511" width="511pt" xmlns="http://www.w3.org/2000/svg"><path d="M439.21 459.45H72.603a72.596 72.596 0 01-61.758-34.434 72.592 72.592 0 01-3.18-70.637L190.97 40.547C203.269 15.953 228.406.414 255.906.414s52.637 15.54 64.938 40.133l183.304 313.832a72.592 72.592 0 01-3.18 70.637 72.591 72.591 0 01-61.757 34.433zm0 0" fill="#f0c419"/><path d="M439.254 459.45H255.906V.413a71.906 71.906 0 0164.973 40.168l183.258 313.82a72.547 72.547 0 01-64.883 105.047zm0 0" fill="#f29c1f"/><path d="M291.219 380c0 19.504-15.813 35.313-35.313 35.313s-35.308-15.81-35.308-35.313c0-19.5 15.808-35.309 35.308-35.309S291.22 360.5 291.22 380zm0 0" fill="#35495e"/><path d="M291.219 380a35.323 35.323 0 01-10.34 24.973 35.323 35.323 0 01-24.973 10.34V344.69a35.29 35.29 0 0124.973 10.34 35.314 35.314 0 0110.34 24.97zm0 0" fill="#2c3e50"/><path d="M255.906 71.035c19.5 0 35.313 15.809 35.313 35.313V274.07c0 19.5-15.813 35.309-35.313 35.309s-35.308-15.809-35.308-35.309V106.348c0-19.504 15.808-35.313 35.308-35.313zm0 0" fill="#35495e"/><path d="M291.219 106.348V274.07a35.308 35.308 0 01-10.34 24.97 35.29 35.29 0 01-24.973 10.339V71.035a35.274 35.274 0 0124.985 10.328 35.283 35.283 0 0110.328 24.985zm0 0" fill="#2c3e50"/></svg>