<svg xmlns="http://www.w3.org/2000/svg" width="512" height="512" viewBox="0 0 512.001 512.001"><g xmlns="http://www.w3.org/2000/svg" fill="#fff"><path d="M500.587 179.516a81.188 81.188 0 00-3.99-5.959c8.379-10.63 12.337-23.845 11.165-37.405-1.223-14.133-7.871-26.933-18.708-36.032-4.976-4.192-31.689-25.103-69.062-25.103-2.475 0-4.954.094-7.425.28-5.104-12.63-14.689-22.662-27.124-28.35a52.667 52.667 0 00-22.079-4.817c-20.72 0-39.672 12.175-48.281 31.011l-1.514 3.309a52.858 52.858 0 00-12.23-1.422h-67.81a52.95 52.95 0 00-22.805 5.154 53.088 53.088 0 00-20.283-4.034h-51.274c-17.389 0-32.932 8.408-42.637 21.462a53.792 53.792 0 00-6.49-7.584c-9.967-9.672-23.09-14.998-36.952-14.998C23.815 75.028 0 98.843 0 128.116v16.391c0 5.522 4.477 10 10 10s10-4.478 10-10v-16.391c0-18.245 14.843-33.088 33.088-33.088 17.668 0 32.504 14.359 33.072 32.009a10 10 0 009.867 9.678c5.349.096 9.803-4.084 10.111-9.423 1.007-17.464 15.516-31.144 33.029-31.144h51.274a32.914 32.914 0 0115.771 4.017 9.998 9.998 0 0010.047-.256 32.912 32.912 0 0117.27-4.881h67.81c4.686 0 9.225.97 13.486 2.882 5.012 2.251 10.899.035 13.186-4.96l5.259-11.488c5.367-11.743 17.18-19.331 30.094-19.331 4.777 0 9.403 1.01 13.755 3.003 8.038 3.676 14.163 10.26 17.255 18.559a31.956 31.956 0 011.336 4.59 9.99 9.99 0 0011.427 7.795 78.452 78.452 0 0112.855-1.06c30.423 0 52.132 16.991 56.188 20.408 6.756 5.672 10.895 13.644 11.656 22.449.762 8.811-1.949 17.387-7.638 24.151a33.562 33.562 0 01-3.506 3.589 10.003 10.003 0 00-.754 14.274c2.895 3.148 5.433 6.512 7.546 9.997 7.375 12.166 10.088 26.451 7.638 40.217-2.744 15.359-11.54 29.298-24.771 39.25-12.54 9.441-28.297 14.642-44.366 14.642a92.46 92.46 0 01-19.777-2.159 10.002 10.002 0 00-10.053 15.887c12.889 16.659 19.701 36.603 19.701 57.673 0 52.095-42.388 94.477-94.488 94.477-28.553 0-55.292-12.764-73.361-35.018-1.969-2.425-4.971-3.774-8.079-3.691a10 10 0 00-7.83 4.194c-15.848 22.257-40.074 34.515-68.217 34.515-52.101 0-94.488-42.382-94.488-94.477 0-20.105 6.252-39.303 18.082-55.518a10 10 0 00-8.078-15.894l-9.124.011c-14.067 0-15.995-.103-18.789-.579A33.01 33.01 0 0120 250.797v-16.291c0-5.522-4.477-10-10-10s-10 4.478-10 10v16.291a52.963 52.963 0 0044.114 52.331c3.523.601 6.214.788 13.473.843-8.017 15.851-12.194 33.335-12.194 51.423 0 63.123 51.359 114.477 114.488 114.477 30.046 0 57.416-12.012 76.794-33.334 21.386 21.318 50.181 33.334 80.692 33.334 63.129 0 114.488-51.354 114.488-114.477 0-18.143-4.168-35.598-12.182-51.425.771.017 1.541.024 2.311.024 20.383 0 40.411-6.629 56.392-18.661 17.279-12.997 28.798-31.362 32.434-51.72 3.304-18.559-.327-37.771-10.223-54.096z" data-original="#000000"/><circle cx="10" cy="189.506" r="10" data-original="#000000"/><path d="M53.076 118.11c-5.523 0-10 4.478-10 10v122.689a10 10 0 008.312 9.856c.702.12 30.884.221 44.742.143 5.523-.031 9.975-4.533 9.944-10.056s-4.519-9.999-10.056-9.944c-9.79.055-23.752.113-32.943.104V128.11c.001-5.523-4.476-10-9.999-10zm137.354 21.121c5.523 0 10-4.478 10-10 0-5.523-4.477-10-10-10h-51.268c-5.523 0-10 4.478-10 10v121.672c0 5.522 4.477 10 10 10h51.268c5.523 0 10-4.478 10-10s-4.477-10-10-10h-41.268v-40.836h37.487c5.523 0 10-4.477 10-10 0-5.522-4.477-10-10-10h-37.487v-40.836zm231.545 101.672c-13.689 0-26.915-5.576-35.38-14.917-3.711-4.093-10.033-4.403-14.125-.695-4.093 3.709-4.403 10.033-.695 14.125 12.193 13.455 30.96 21.487 50.2 21.487 22.907 0 42.857-14.984 46.405-34.855 2.677-14.989-4.398-34.671-32.281-44.955-15.963-5.889-30.757-12.32-34.307-13.881-4.269-3.08-6.347-8.036-5.577-13.397.951-6.628 6.005-11.936 13.52-14.2 20.23-6.091 38.418 8.548 38.73 8.802 4.229 3.525 10.511 2.968 14.057-1.248 3.554-4.227 3.007-10.536-1.221-14.09-1.068-.898-26.53-21.89-57.336-12.614-14.937 4.5-25.492 16.19-27.547 30.509-1.91 13.307 3.852 26.102 15.036 33.393a9.95 9.95 0 001.387.756c.704.314 17.456 7.77 36.336 14.734 14.05 5.183 21.162 13.447 19.515 22.676-1.59 8.905-11.495 18.37-26.717 18.37zM301.331 118.11h-67.813c-5.523 0-10 4.478-10 10s4.477 10 10 10h23.77v112.793c0 5.522 4.477 10 10 10 5.522 0 10-4.478 10-10V138.11h24.044c5.522 0 10-4.478 10-10-.001-5.523-4.479-10-10.001-10zm66.179-31.987c-5.025-2.301-10.958-.087-13.253 4.935l-18.933 41.399c-2.296 5.023-.087 10.957 4.936 13.253a9.96 9.96 0 004.153.908c3.793 0 7.42-2.169 9.1-5.843l18.933-41.399c2.295-5.023.086-10.957-4.936-13.253zM88.478 355.387c0 39.368 32.028 71.396 71.397 71.396 37.093 0 63-29.359 63-71.396 0-5.522-4.477-10-10-10h-36.733c-5.523 0-10 4.478-10 10s4.477 10 10 10h26.06c-2.841 20.851-14.986 41.396-42.327 41.396-28.34 0-51.397-23.057-51.397-51.396 0-28.34 23.057-51.397 51.397-51.397 10.301 0 20.235 3.033 28.729 8.772 4.577 3.091 10.792 1.888 13.884-2.688 3.092-4.577 1.888-10.793-2.688-13.885-11.813-7.98-25.619-12.199-39.925-12.199-39.369.001-71.397 32.029-71.397 71.397zm157.485 0c0 39.368 32.028 71.396 71.396 71.396s71.396-32.028 71.396-71.396-32.028-71.397-71.396-71.397c-39.368.001-71.396 32.029-71.396 71.397zm122.793 0c0 28.34-23.057 51.396-51.396 51.396-28.34 0-51.397-23.057-51.397-51.396 0-28.34 23.057-51.397 51.397-51.397 28.339.001 51.396 23.057 51.396 51.397z" data-original="#000000"/></g></svg>