<svg xmlns="http://www.w3.org/2000/svg" width="512" height="512" viewBox="0 0 83.816 83.816"><g fill="#afafaf" xmlns="http://www.w3.org/2000/svg"><path d="M41.908 0C18.762 0 0 18.763 0 41.909c0 23.145 18.762 41.908 41.908 41.908 23.145 0 41.908-18.763 41.908-41.908C83.816 18.763 65.053 0 41.908 0zm-3.581 70.771c-6.755 0-12.25-5.496-12.25-12.25 0-5.154 3.152-9.67 7.92-11.463V17.322a1 1 0 011-1h6.667a1 1 0 011 1v1.699h4.232a1 1 0 011 1v3a1 1 0 01-1 1h-.739v2a1 1 0 01-1 1h-2.493v1.191h2.493a1 1 0 011 1v3a1 1 0 01-1 1h-2.493v13.849c4.764 1.793 7.913 6.309 7.913 11.461 0 6.753-5.495 12.249-12.25 12.249z" data-original="#000000"/><path d="M38.327 52.729a5.798 5.798 0 00-5.791 5.793c0 3.192 2.598 5.791 5.791 5.791s5.792-2.599 5.792-5.791a5.798 5.798 0 00-5.792-5.793z" data-original="#000000"/></g></svg>